<svg xmlns="http://www.w3.org/2000/svg" width="30" height="21" viewBox="0 0 30 21" version="1.1"><title>vip</title><g stroke="none" stroke-width="1" fill="none" fill-rule="evenodd"><g transform="translate(-30.000000, -80.000000)" fill="#C8D0DC"><g transform="translate(0.000000, 50.000000)"><g transform="translate(30.000000, 30.000000)"><path d="M17.9 2.5L15 0 12.3 2.5 15 5.2 17.9 2.5 17.9 2.5ZM2.1 3.4L0 5.2 2.1 7 4.2 5.2 2.1 3.4 2.1 3.4ZM24 19.6L6 19.6 6 21 24 21 24 19.6 24 19.6ZM15 5.5L9.2 10.6 3.2 6.7 6 18.2 24 18.2 27 6.9 21 10.6 15 5.5 15 5.5ZM15 15.4L12.9 13.4 15 11.3 17.1 13.3 15 15.4 15 15.4ZM27.9 3.4L25.8 5.2 27.9 7 30 5.2 27.9 3.4 27.9 3.4Z"/></g></g></g></g></svg>
